<svg width="291" height="68" viewBox="0 0 291 68" fill="none" xmlns="http://www.w3.org/2000/svg">
<path fill-rule="evenodd" clip-rule="evenodd" d="M0.41275 25.3454H5.36594L26.2106 51.5151V25.2424H29.3064V65.9394L3.5085 33.1758V65.5273H0.41275V25.3454ZM34.8787 25.3454H49.8415L51.9053 29.9818C51.9053 29.9818 49.4287 27.6121 44.6819 27.6121H41.2766V41.8303H47.1585C50.2542 41.8303 50.7702 41.4182 51.9053 40.2848V46.2606C51.9053 46.2606 50.5638 44.2 47.1585 44.2H41.2766V62.7454H49.5319C57.7872 62.7454 61.9149 59.6545 61.9149 59.6545L58.8191 65.6303H34.8787V25.4485V25.3454ZM241.778 25.3454H258.288L260.352 29.9818C260.352 29.9818 258.082 27.6121 253.129 27.6121H247.556V41.8303H253.954C256.431 41.8303 257.05 41.6242 258.082 40.8V45.3333C258.082 45.3333 257.36 43.8909 253.954 43.8909H247.66V62.8485H251.581C258.804 62.8485 261.487 60.7879 261.487 60.7879L257.876 65.5273H241.674V25.3454H241.778ZM53.6596 25.3454H60.0574L73.6787 54.6061L76.4649 48.6303L66.1457 25.3454H72.1308L79.4574 41.0061L86.6808 25.3454H89.7766L81.5213 45.3333L85.9585 54.6061L99.0638 25.4485H102.676L84.4106 65.9394L78.2191 52.5454L72.0276 65.9394L53.6596 25.3454ZM159.224 23.903C173.362 23.903 181.927 33.6909 181.927 44.5091C181.927 58.5212 174.187 67.3818 159.637 67.3818C144.984 67.3818 136.316 56.5636 136.316 45.7454C136.316 33.5879 145.603 23.903 159.328 23.903H159.224ZM142.404 44.8182C142.404 54.297 147.77 64.6 159.947 64.6C171.298 64.6 175.735 55.3273 175.735 45.0242C175.735 36.7818 170.06 26.2727 158.915 26.2727C151.279 26.2727 142.404 32.2485 142.404 44.8182ZM186.777 25.2424H196.064C201.223 25.2424 205.351 28.1273 205.351 33.4848C205.351 39.6667 200.811 41.4182 197.612 42.4485C203.39 43.4788 205.557 46.1576 205.557 53.7818C205.557 61.5091 207.621 64.2909 209.272 64.2909C210.614 64.2909 211.749 63.4667 212.059 62.8485L212.884 63.3636C212.574 63.7757 211.027 66.2485 207.312 66.2485C203.597 66.2485 200.604 62.8485 200.604 54.9151C200.604 43.2727 197.508 43.0667 194.929 43.0667V42.2424C194.929 42.2424 200.295 41.0061 200.295 34.5151C200.295 28.3333 196.58 27.5091 195.135 27.5091H192.349V65.6303H186.364L186.57 25.4485L186.777 25.2424ZM264.17 25.2424H273.664C278.823 25.2424 282.951 28.1273 282.951 33.4848C282.951 39.6667 278.307 41.4182 275.109 42.4485C280.887 43.4788 283.054 46.1576 283.054 53.7818C283.054 61.5091 285.118 64.2909 286.769 64.2909C288.007 64.2909 289.143 63.4667 289.452 62.8485L290.278 63.3636C289.968 63.7757 288.42 66.2485 284.705 66.2485C280.99 66.2485 278.101 62.8485 278.101 54.9151C278.101 43.2727 275.005 43.0667 272.426 43.0667V42.2424C272.632 42.2424 277.895 41.0061 277.895 34.5151C277.895 28.3333 274.18 27.5091 272.735 27.5091H269.949V65.6303H263.964L264.17 25.4485V25.2424ZM232.181 53.6788C232.181 61.5091 234.038 64.2909 235.896 64.2909C237.237 64.2909 238.269 63.2606 238.682 62.8485L239.507 63.2606C239.301 63.5697 237.753 66.0424 233.935 66.0424C230.22 66.0424 227.434 62.9515 227.434 54.7091V53.1636C227.434 48.4242 227.124 44.7151 226.402 42.3454C225.68 40.2848 223.306 38.9454 222.274 38.9454H221.243V65.5273H215.257V25.3454H221.139V37.0909L231.768 25.1394H235.586L224.235 37.7091C230.117 38.7394 232.181 42.8606 232.181 52.1333V53.5757V53.6788ZM139.824 0.412112H142.92V7.62423H150.144V0.412112H153.239V17.2061H150.144V8.96363H142.92V17.2061H139.824V0.412112ZM159.018 0.412112H166.861L167.893 2.88484C167.893 2.88484 166.241 1.85454 164.797 1.85454H162.011V7.62423H164.694C166.138 7.62423 166.551 7.00605 166.551 7.00605V9.68484C166.551 9.68484 166.138 8.8606 164.694 8.8606H162.011V16.0727H165.726C168.512 16.0727 169.647 14.6303 169.647 14.6303L168.305 17.4121H159.018V0.309082H159.224L159.018 0.412112ZM130.021 1.64848H131.466C134.046 1.64848 136.11 3.39999 136.11 3.39999L135.078 0.309082H121.147L120.115 3.39999C120.115 3.39999 122.179 1.64848 124.862 1.64848H126.616V17.103H129.712V1.64848H129.918H130.021Z" fill="#121212"/>
<path fill-rule="evenodd" clip-rule="evenodd" d="M127.957 65.5273V44.7152L139.308 25.3455H135.594L124.862 43.8909L114.027 25.3455H110.415L121.766 44.7152V65.5273H127.957Z" fill="black"/>
</svg>
